# xmcd
#
# Track frame offsets:
#	150
#	16607
#	31906
#	47579
#	64085
#	79390
#	93645
#	111283
#	126948
#	142321
#	155233
#	167103
#	182439
#
# Disc length: 2636 seconds
#
# Revision: 0
# Processed by: cddbd v1.5.2PL0 Copyright (c) Steve Scherf et al.
# Submitted via: audiograbber 1.83.01
#
DISCID=b20a4a0d
DTITLE=Gabriella Cilmi - Lessons to Be Learned
DYEAR=2008
DGENRE=Pop
TTITLE0=Save The Lies 
TTITLE1=Sweet About Me 
TTITLE2=Sanctuary 
TTITLE3=Einstein 
TTITLE4=Got No Place To Go 
TTITLE5=Don't Wanna Go To Bed Now 
TTITLE6=Messy 
TTITLE7=Awkward Game 
TTITLE8=Safer 
TTITLE9=Cigarettes And Lies 
TTITLE10=Terrifying 
TTITLE11=Sit In The Blues 
TTITLE12=Echo Beach 
EXTD=
EXTT0=
EXTT1=
EXTT2=
EXTT3=
EXTT4=
EXTT5=
EXTT6=
EXTT7=
EXTT8=
EXTT9=
EXTT10=
EXTT11=
EXTT12=
PLAYORDER=
